<svg id="Group_68" data-name="Group 68" xmlns="http://www.w3.org/2000/svg" xmlns:xlink="http://www.w3.org/1999/xlink" width="80" height="80" viewBox="0 0 80 80">
  <defs>
    <linearGradient id="linear-gradient" y1="0.5" x2="1" y2="1" gradientUnits="objectBoundingBox">
      <stop offset="0" stop-color="#0a44c6"/>
      <stop offset="1" stop-color="#052263"/>
    </linearGradient>
    <clipPath id="clip-path">
      <rect id="Rectangle_101" data-name="Rectangle 101" width="80" height="80" fill="url(#linear-gradient)"/>
    </clipPath>
  </defs>
  <g id="Group_67" data-name="Group 67" clip-path="url(#clip-path)">
    <path id="Path_30" data-name="Path 30" d="M87.305,8.636q-3.518,5.556-7.032,11.114a2.9,2.9,0,0,1-2.031,1.42c-1.174.21-2.333.5-3.508.7a2.7,2.7,0,0,0-1.532.826Q59.674,36.245,46.128,49.779c-.85.85-.85.85-1.723-.024l-6.77-6.77c-.726-.727-.726-.73-.008-1.449q13.567-13.567,27.14-27.128a2.9,2.9,0,0,0,.91-1.658c.192-1.2.472-2.39.717-3.583a2.578,2.578,0,0,1,1.174-1.756C71.052,5.206,74.527,2.983,78.013.778c1.508-.954,2.454-.831,3.732.443,1.489,1.484,2.969,2.976,4.462,4.454a5.863,5.863,0,0,1,1.1,1.4Z" transform="translate(-7.418 -0.03)" fill="url(#linear-gradient)"/>
    <path id="Path_31" data-name="Path 31" d="M90.608,78.959c-.038.123-.082.246-.114.37a2.426,2.426,0,0,1-4.142,1.349q-2.215-1.84-4.381-3.738c-.376-.33-.6-.338-.954.024q-2.009,2.062-4.072,4.072c-.351.343-.382.567-.039.955,1.219,1.38,2.38,2.811,3.6,4.194a2.556,2.556,0,0,1,.611,2.992,2.5,2.5,0,0,1-2.581,1.362c-2.117-.055-4.222.111-6.3-.652A13.691,13.691,0,0,1,63.6,74.338a1.713,1.713,0,0,0-.558-1.824c-3.032-2.986-6.02-6.014-9.046-9.006-.459-.454-.559-.726-.039-1.237q4.194-4.116,8.312-8.308c.471-.479.74-.42,1.179.024,3.084,3.116,6.2,6.206,9.287,9.314a1.163,1.163,0,0,0,1.223.386,13.645,13.645,0,0,1,16.49,10.7c.047.227.107.453.161.679Z" transform="translate(-10.721 -10.726)" fill="url(#linear-gradient)"/>
    <path id="Path_32" data-name="Path 32" d="M.141,78.218a11.363,11.363,0,0,1,3.416-8.257q7.249-7.282,14.537-14.526c.5-.5.6-.8.086-1.374a2.317,2.317,0,0,1,.183-3.294,2.386,2.386,0,0,1,3.314.017c.8.738,1.551,1.531,2.322,2.3Q31.514,60.6,39.031,68.108a2.744,2.744,0,0,1,.98,2.194,2.293,2.293,0,0,1-1.465,2.039,2.215,2.215,0,0,1-2.532-.43c-.518-.49-.8-.381-1.256.074q-7.216,7.26-14.466,14.486a10.658,10.658,0,0,1-3.907,2.634C7.855,92.167.135,86.337.141,78.218M22.223,65.85a2.646,2.646,0,0,0-2.038.918q-5.49,5.51-11,11c-.256.256-.527.5-.756.782A2.214,2.214,0,0,0,9.7,82.145,2.371,2.371,0,0,0,12,81.318q5.716-5.725,11.438-11.442a3.385,3.385,0,0,0,.414-.464,2.163,2.163,0,0,0,.177-2.347,2.19,2.19,0,0,0-1.8-1.215" transform="translate(-0.028 -10.021)" fill="url(#linear-gradient)"/>
    <path id="Path_33" data-name="Path 33" d="M.207,13.839a8.883,8.883,0,0,1,.1-2.17,2.424,2.424,0,0,1,4.107-1.534q2.257,1.85,4.443,3.786c.389.343.612.311.954-.039q2.012-2.06,4.074-4.072c.365-.355.349-.582.02-.956-1.233-1.4-2.419-2.846-3.643-4.257a2.535,2.535,0,0,1-.641-2.718A2.543,2.543,0,0,1,11.829.286,13.7,13.7,0,0,1,27.343,11.638a13.116,13.116,0,0,1-.174,5.174,1.193,1.193,0,0,0,.388,1.3c3.094,3.07,6.16,6.17,9.265,9.229.514.507.5.793,0,1.293q-4.135,4.066-8.2,8.2c-.514.523-.8.487-1.293-.013-3.062-3.1-6.16-6.169-9.23-9.264a1.226,1.226,0,0,0-1.3-.376A13.648,13.648,0,0,1,.215,15.394a13.079,13.079,0,0,1-.008-1.554" transform="translate(-0.037 -0.022)" fill="url(#linear-gradient)"/>
  </g>
</svg>
