<svg id="Group_70" data-name="Group 70" xmlns="http://www.w3.org/2000/svg" xmlns:xlink="http://www.w3.org/1999/xlink" width="80" height="80" viewBox="0 0 80 80">
  <defs>
    <linearGradient id="linear-gradient" x1="0.263" y1="0.313" x2="1.191" y2="0.5" gradientUnits="objectBoundingBox">
      <stop offset="0" stop-color="#0a44c6"/>
      <stop offset="1" stop-color="#052263"/>
    </linearGradient>
    <clipPath id="clip-path">
      <rect id="Rectangle_102" data-name="Rectangle 102" width="80" height="80" fill="url(#linear-gradient)"/>
    </clipPath>
  </defs>
  <g id="Group_69" data-name="Group 69" clip-path="url(#clip-path)">
    <path id="Path_34" data-name="Path 34" d="M41.769,38.052c-.246-.128-.457-.229-.658-.346q-14.524-8.38-29.044-16.762c-.882-.509-1.769-1.01-2.646-1.528-.687-.406-.69-.51,0-.91q4.948-2.869,9.9-5.725Q30.178,6.515,41.03.239a1.3,1.3,0,0,1,1.5-.006q15.73,9.112,31.478,18.189c.866.5.866.578.006,1.074Q58.237,28.6,42.456,37.706c-.222.128-.458.231-.687.346" transform="translate(-1.781 0)" fill="url(#linear-gradient)"/>
    <path id="Path_35" data-name="Path 35" d="M5.674,47.868q0-9.053,0-18.1c0-1.061.038-1.079.962-.546q15.542,8.968,31.1,17.916A1.944,1.944,0,0,1,38.857,49.1c-.036,11.756-.023,23.512-.023,35.269,0,.182,0,.366,0,.548-.021.818-.277.986-1.014.577-1.485-.824-2.948-1.686-4.418-2.535Q19.931,75.179,6.456,67.411a1.368,1.368,0,0,1-.794-1.359c.021-6.061.012-12.122.012-18.183" transform="translate(-1.132 -5.775)" fill="url(#linear-gradient)"/>
    <path id="Path_36" data-name="Path 36" d="M86.024,47.91c0,6.009-.012,12.018.015,18.026a1.543,1.543,0,0,1-.9,1.542Q69.689,76.361,54.26,85.291a4.947,4.947,0,0,1-.554.293c-.54.224-.867.1-.841-.55.006-.13,0-.262,0-.392q0-17.948-.015-35.9a1.427,1.427,0,0,1,.819-1.425q15.792-9.082,31.565-18.2c.722-.416.79-.372.79.526q0,9.13,0,18.261" transform="translate(-10.57 -5.774)" fill="url(#linear-gradient)"/>
  </g>
</svg>
