<svg xmlns="http://www.w3.org/2000/svg" xmlns:xlink="http://www.w3.org/1999/xlink" width="43" height="44" viewBox="0 0 43 44">
  <defs>
    <clipPath id="clip-path">
      <rect id="Rectangle_107" data-name="Rectangle 107" width="43" height="44" transform="translate(0 -0.362)" fill="#fff"/>
    </clipPath>
  </defs>
  <g id="Group_78" data-name="Group 78" transform="translate(0 0.362)">
    <g id="Group_77" data-name="Group 77" transform="translate(0 0)" clip-path="url(#clip-path)">
      <path id="Path_46" data-name="Path 46" d="M46.376,39.395V51.571a1.575,1.575,0,0,1-1.042,1.623,2.345,2.345,0,0,1-.774.108H23.866a1.582,1.582,0,0,1-1.592-.961,1.734,1.734,0,0,1-.138-.74V39.516c0-.082-.048-.195.048-.238s.16.056.229.1q5.6,3.6,11.191,7.2a1.09,1.09,0,0,0,1.3,0Q40.459,43,46.026,39.429c.065-.039.13-.082.195-.125.117-.074.156-.03.156.091" transform="translate(-12.554 -22.276)" fill="#fff"/>
      <path id="Path_47" data-name="Path 47" d="M46.248,29.589a2.806,2.806,0,0,1,.125,1.151c0,.156-.13.208-.234.273l-6.134,3.946q-2.738,1.759-5.468,3.522a.436.436,0,0,1-.549.009q-5.7-3.68-11.411-7.335a.821.821,0,0,1-.45-.839,1.634,1.634,0,0,1,.995-1.579,2.017,2.017,0,0,1,.8-.125q5.165.006,10.33,0,5.191,0,10.386,0a1.591,1.591,0,0,1,1.609.974" transform="translate(-12.555 -16.231)" fill="#fff"/>
      <path id="Path_48" data-name="Path 48" d="M42.3,6.08A10.84,10.84,0,0,0,34.243.125c-.195-.035-.385-.082-.58-.125H9.785A11.965,11.965,0,0,0,6,1.155,10.862,10.862,0,0,0,.109,9.4a9.961,9.961,0,0,0-.1,1.644c0,7.1.039,14.2-.013,21.3A11,11,0,0,0,8.509,43.129a10.826,10.826,0,0,0,2.479.273q10.726,0,21.455,0a10.909,10.909,0,0,0,10.481-7.581,16.562,16.562,0,0,0,.48-2.1V9.658A12.2,12.2,0,0,0,42.3,6.08M35.731,29.442a3.432,3.432,0,0,1-3.5,3.492q-5.262.006-10.533,0-5.256,0-10.507,0A3.449,3.449,0,0,1,7.7,29.991a3.372,3.372,0,0,1-.03-.554q-.006-7.73,0-15.47a3.44,3.44,0,0,1,3.5-3.5H32.24a3.434,3.434,0,0,1,3.491,3.5q.006,7.737,0,15.474" transform="translate(0 0)" fill="#fff"/>
    </g>
  </g>
</svg>
