<svg xmlns="http://www.w3.org/2000/svg" xmlns:xlink="http://www.w3.org/1999/xlink" width="43" height="44" viewBox="0 0 43 44">
  <defs>
    <clipPath id="clip-path">
      <rect id="Rectangle_105" data-name="Rectangle 105" width="43" height="44" transform="translate(0 -0.49)" fill="#fff"/>
    </clipPath>
  </defs>
  <g id="Group_76" data-name="Group 76" transform="translate(0 0.49)">
    <g id="Group_75" data-name="Group 75" clip-path="url(#clip-path)">
      <path id="Path_44" data-name="Path 44" d="M43.4,9.657V33.715a16.741,16.741,0,0,1-.478,2.1A10.916,10.916,0,0,1,32.446,43.4c-7.153.014-14.306,0-21.459,0A10.937,10.937,0,0,1,0,32.342c.055-7.1.014-14.2.014-21.3A10.27,10.27,0,0,1,.107,9.4,10.858,10.858,0,0,1,6,1.155,11.867,11.867,0,0,1,9.786,0H33.666c.192.042.384.09.577.125A10.842,10.842,0,0,1,42.3,6.076,12.294,12.294,0,0,1,43.4,9.657M21.785,8.237a10.032,10.032,0,0,0-2.23.207A13.128,13.128,0,0,0,8.729,21.431,12.443,12.443,0,0,0,10.384,27.7a1.012,1.012,0,0,1,.087.917C9.779,30.606,9.1,32.6,8.429,34.587c-.047.138-.2.3-.062.426s.294-.023.436-.068q3.147-.993,6.289-2a1.056,1.056,0,0,1,.846.071A13.206,13.206,0,0,0,34.887,18.625a13.236,13.236,0,0,0-13.1-10.389" transform="translate(0)" fill="#fff"/>
      <path id="Path_45" data-name="Path 45" d="M47.324,34.632A11.237,11.237,0,0,1,30.3,44.239a.846.846,0,0,0-.76-.081c-1.152.379-2.309.745-3.465,1.114-.116.037-.25.138-.357.037s0-.24.035-.353c.374-1.11.744-2.221,1.136-3.324a.756.756,0,0,0-.1-.746,11.086,11.086,0,0,1,5.9-16.762,11.29,11.29,0,0,1,14.417,8.409,8.511,8.511,0,0,1,.218,2.1m-15.41-5.8a1.216,1.216,0,0,0-1.051.273A3.434,3.434,0,0,0,29.7,31.162a4.246,4.246,0,0,0,.6,2.925A13.226,13.226,0,0,0,38.456,40.7a3.841,3.841,0,0,0,3.471-.637,2.29,2.29,0,0,0,.838-1.9.534.534,0,0,0-.364-.521q-1.221-.587-2.44-1.175a.592.592,0,0,0-.813.209c-.275.357-.574.7-.853,1.051a.685.685,0,0,1-.934.183,9.173,9.173,0,0,1-4.049-3.355c-.532-.8-.54-.792.078-1.5.1-.117.188-.246.282-.369a1.044,1.044,0,0,0,.1-1.181c-.3-.638-.561-1.295-.816-1.952-.193-.5-.463-.848-1.044-.71" transform="translate(-14.133 -13.383)" fill="#fff"/>
    </g>
  </g>
</svg>
