<svg xmlns="http://www.w3.org/2000/svg" xmlns:xlink="http://www.w3.org/1999/xlink" width="43" height="43" viewBox="0 0 43 43">
  <defs>
    <clipPath id="clip-path">
      <rect id="Rectangle_104" data-name="Rectangle 104" width="43" height="43" transform="translate(0 0.383)" fill="#fff"/>
    </clipPath>
  </defs>
  <g id="Group_74" data-name="Group 74" transform="translate(0 -0.383)">
    <g id="Group_73" data-name="Group 73" clip-path="url(#clip-path)">
      <path id="Path_41" data-name="Path 41" d="M0,33.271V10.21c.048-.278.1-.556.144-.833A11.472,11.472,0,0,1,11.218.007C18.189-.007,25.16.005,32.131,0A10.055,10.055,0,0,1,33.69.124,11.558,11.558,0,0,1,43.4,11.6c-.061,6.781-.007,13.563-.018,20.345a11.136,11.136,0,0,1-4.53,9.188A10.346,10.346,0,0,1,32.308,43.4c-7.281-.032-14.563-.011-21.845-.013a4.521,4.521,0,0,1-.76-.033A11.4,11.4,0,0,1,1.473,37.7,11.886,11.886,0,0,1,0,33.271M21.721,7.7q-3.112,0-6.223,0a8.121,8.121,0,0,0-1.515.129,7.594,7.594,0,0,0-6.326,7.638q-.012,6.273,0,12.546a7.923,7.923,0,0,0,.125,1.432,7.582,7.582,0,0,0,7.584,6.332q6.308.021,12.615,0a7.687,7.687,0,0,0,1.347-.117A7.584,7.584,0,0,0,35.7,28.1q.029-6.357,0-12.715a7.632,7.632,0,0,0-7.71-7.676C25.9,7.68,23.81,7.7,21.721,7.7" transform="translate(0 0)" fill="#fff"/>
      <path id="Path_42" data-name="Path 42" d="M23.6,35.205c0-2.133,0-4.267,0-6.4a5.08,5.08,0,0,1,5.1-5.12q6.455-.009,12.911,0a5.076,5.076,0,0,1,5.083,5.1q.01,6.464,0,12.927a5.077,5.077,0,0,1-5.082,5.1q-6.477.011-12.954,0A5.082,5.082,0,0,1,23.6,41.732c-.007-2.176,0-4.351,0-6.527m11.544-6.28a6.322,6.322,0,1,0,6.321,6.316,6.374,6.374,0,0,0-6.321-6.316m8.515-.95a1.227,1.227,0,1,0-1.235,1.21,1.29,1.29,0,0,0,1.235-1.21" transform="translate(-13.472 -13.507)" fill="#fff"/>
      <path id="Path_43" data-name="Path 43" d="M41.561,45.49a3.844,3.844,0,1,1,3.828,3.854,3.815,3.815,0,0,1-3.828-3.854" transform="translate(-23.726 -23.754)" fill="#fff"/>
    </g>
  </g>
</svg>
